<svg id="Layer_2_copy" data-name="Layer 2 copy" xmlns="http://www.w3.org/2000/svg" viewBox="0 0 12 8"><defs><style>.cls-1{fill:#fff;}</style></defs><title>email-white</title><path class="cls-1" d="M0,.623V7.377A.623.623,0,0,0,.623,8H11.377A.623.623,0,0,0,12,7.377V.623A.623.623,0,0,0,11.377,0H.623A.623.623,0,0,0,0,.623Zm4.833.728A1.267,1.267,0,0,1,5.12.937,1.362,1.362,0,0,1,5.543.661a1.3,1.3,0,0,1,.514-.1,1.408,1.408,0,0,1,.459.077A1.252,1.252,0,0,1,6.9.853a1.041,1.041,0,0,1,.268.336.926.926,0,0,1,.1.438,1.024,1.024,0,0,1-.1.462,1.086,1.086,0,0,1-.231.315,1.035,1.035,0,0,1-.273.18.633.633,0,0,1-.222.057.278.278,0,0,1-.18-.056A.191.191,0,0,1,6.2,2.443H6.19a.405.405,0,0,1-.164.154.5.5,0,0,1-.214.049A.519.519,0,0,1,5.6,2.6a.571.571,0,0,1-.174-.13.632.632,0,0,1-.119-.191.623.623,0,0,1-.044-.23,1.054,1.054,0,0,1,.054-.325.929.929,0,0,1,.155-.287.761.761,0,0,1,.241-.2.634.634,0,0,1,.313-.077.539.539,0,0,1,.23.054.355.355,0,0,1,.178.186l.055-.189h.287l-.221.9-.017.079a.32.32,0,0,0-.009.075.1.1,0,0,0,.014.057.051.051,0,0,0,.045.023A.28.28,0,0,0,6.737,2.3a.444.444,0,0,0,.133-.133.778.778,0,0,0,.094-.2A.865.865,0,0,0,7,1.7a.882.882,0,0,0-.074-.369.793.793,0,0,0-.2-.27A.835.835,0,0,0,6.427.9,1.207,1.207,0,0,0,6.054.841,1.015,1.015,0,0,0,5.647.92a.922.922,0,0,0-.513.546,1.176,1.176,0,0,0-.07.411,1.1,1.1,0,0,0,.076.417.97.97,0,0,0,.214.322.945.945,0,0,0,.327.208A1.155,1.155,0,0,0,6.1,2.9a1.193,1.193,0,0,0,.418-.075.946.946,0,0,0,.334-.212h.295a1.207,1.207,0,0,1-.459.418,1.325,1.325,0,0,1-.608.145,1.428,1.428,0,0,1-.525-.1A1.337,1.337,0,0,1,5.121,2.8a1.255,1.255,0,0,1-.288-.414A1.328,1.328,0,0,1,4.833,1.351ZM11.471,7.44a.251.251,0,0,1-.351.042h0L7.131,4.317l-.01.008a1.4,1.4,0,0,1-.2.132,1.988,1.988,0,0,1-2.034-.122L4.866,4.32.881,7.481a.25.25,0,1,1-.31-.392L4.464,4,.571.911A.25.25,0,0,1,.881.519l4.3,3.414a1.485,1.485,0,0,0,1.505.082.942.942,0,0,0,.126-.083L11.11.519a.25.25,0,0,1,.311.392L7.533,4l3.9,3.091A.251.251,0,0,1,11.471,7.44Z"/><path class="cls-1" d="M6.051,1.488a.324.324,0,0,0-.174.048.464.464,0,0,0-.139.122.552.552,0,0,0-.088.166A.5.5,0,0,0,5.619,2a.328.328,0,0,0,.081.228.254.254,0,0,0,.2.086.33.33,0,0,0,.173-.049A.553.553,0,0,0,6.2,2.141a.576.576,0,0,0,.089-.17.615.615,0,0,0,.032-.185.3.3,0,0,0-.078-.214A.255.255,0,0,0,6.051,1.488Z"/></svg>