<svg id="Layer_2_copy" data-name="Layer 2 copy" xmlns="http://www.w3.org/2000/svg" viewBox="0 0 12 8"><defs><style>.cls-1,.cls-2{fill:#611742;}.cls-2{stroke:#fff;stroke-linecap:round;stroke-miterlimit:10;stroke-width:0.5px;}.cls-3{fill:#fff;}</style></defs><title>email</title><path class="cls-1" d="M0,0V8H12V0ZM11.471,7.44a.25.25,0,0,1-.352.041L6,3.42.881,7.481a.244.244,0,0,1-.155.054.25.25,0,0,1-.155-.446L6,2.782l5.43,4.307A.251.251,0,0,1,11.471,7.44Z"/><path class="cls-2" d="M.726.715l4.3,3.414a1.74,1.74,0,0,0,1.775.108,1.146,1.146,0,0,0,.165-.108l4.3-3.414"/><path class="cls-3" d="M6.538,2.19a.308.308,0,0,0-.009.075.1.1,0,0,0,.014.057.05.05,0,0,0,.045.023A.283.283,0,0,0,6.737,2.3a.444.444,0,0,0,.133-.133.778.778,0,0,0,.094-.2A.865.865,0,0,0,7,1.7a.882.882,0,0,0-.074-.369.787.787,0,0,0-.2-.27A.833.833,0,0,0,6.427.9,1.185,1.185,0,0,0,6.054.841,1.015,1.015,0,0,0,5.647.92a.918.918,0,0,0-.313.217.928.928,0,0,0-.2.329,1.172,1.172,0,0,0-.07.411,1.1,1.1,0,0,0,.076.417.965.965,0,0,0,.214.322.945.945,0,0,0,.327.208A1.148,1.148,0,0,0,6.1,2.9a1.193,1.193,0,0,0,.418-.075.946.946,0,0,0,.334-.212h.295a1.207,1.207,0,0,1-.459.418,1.325,1.325,0,0,1-.608.145,1.428,1.428,0,0,1-.525-.1A1.334,1.334,0,0,1,5.121,2.8a1.266,1.266,0,0,1-.288-.414,1.328,1.328,0,0,1,0-1.035A1.271,1.271,0,0,1,5.12.937,1.362,1.362,0,0,1,5.543.661a1.3,1.3,0,0,1,.514-.1,1.408,1.408,0,0,1,.459.077A1.263,1.263,0,0,1,6.9.853a1.043,1.043,0,0,1,.268.336.923.923,0,0,1,.1.438,1.027,1.027,0,0,1-.1.462,1.086,1.086,0,0,1-.231.315,1.035,1.035,0,0,1-.273.18.633.633,0,0,1-.222.057.276.276,0,0,1-.18-.056A.19.19,0,0,1,6.2,2.443H6.19a.405.405,0,0,1-.164.154.5.5,0,0,1-.214.049A.513.513,0,0,1,5.6,2.6a.571.571,0,0,1-.174-.13.632.632,0,0,1-.119-.191.607.607,0,0,1-.044-.23,1.05,1.05,0,0,1,.054-.325.918.918,0,0,1,.155-.287.761.761,0,0,1,.241-.2.634.634,0,0,1,.313-.077.539.539,0,0,1,.23.054.355.355,0,0,1,.178.186l.055-.189h.287l-.221.9ZM5.7,2.228a.254.254,0,0,0,.2.086.33.33,0,0,0,.173-.049A.561.561,0,0,0,6.2,2.141a.588.588,0,0,0,.089-.17.615.615,0,0,0,.032-.185.3.3,0,0,0-.078-.214.255.255,0,0,0-.192-.084.324.324,0,0,0-.174.048.464.464,0,0,0-.139.122.552.552,0,0,0-.088.166A.514.514,0,0,0,5.619,2,.328.328,0,0,0,5.7,2.228Z"/></svg>