<?xml version="1.0" encoding="utf-8"?>
<!-- Generator: Adobe Illustrator 24.0.1, SVG Export Plug-In . SVG Version: 6.00 Build 0)  -->
<svg version="1.1" id="Layer_1" xmlns="http://www.w3.org/2000/svg" xmlns:xlink="http://www.w3.org/1999/xlink" x="0px" y="0px"
	 viewBox="0 0 10 10" style="enable-background:new 0 0 10 10;" xml:space="preserve">
<style type="text/css">
	.st0{fill:#611742;}
</style>
<title>home-icon</title>
<path class="st0" d="M5,0.7l3.8,3.8h-1v5H6.4V7.3c0-0.5-0.4-0.8-0.8-0.8H4.4C4,6.5,3.6,6.8,3.6,7.3v2.2H2.2v-5h-1L5,0.7 M5,0L0,5
	h1.7v5h2.4V7.3C4.1,7.1,4.3,7,4.4,7h1.1c0.2,0,0.3,0.2,0.3,0.3V10h2.4V5H10L5,0z"/>
<polygon class="st0" points="0.7,4.7 5,0.4 9.3,4.7 8.1,4.7 8.2,9.8 6.2,9.8 6.2,6.9 4,6.9 4,9.8 1.9,9.8 1.9,4.6 "/>
</svg>
