<svg id="Layer_1" data-name="Layer 1" xmlns="http://www.w3.org/2000/svg" viewBox="0 0 463.8 307"><defs><style>.cls-1{fill:#fff;}</style></defs><title>kemdi-logo-white</title><g id="Layer_2" data-name="Layer 2"><g id="logo-black"><path class="cls-1" d="M5,239.6a4.951,4.951,0,0,1-5-5V72.4a4.951,4.951,0,0,1,5-5,4.951,4.951,0,0,1,5,5V234.6A4.951,4.951,0,0,1,5,239.6Z"/><path class="cls-1" d="M423.5,239.6a4.951,4.951,0,0,1-5-5V72.4a5,5,0,1,1,10,0V234.6A4.951,4.951,0,0,1,423.5,239.6Z"/><path class="cls-1" d="M182.5,239.6a4.951,4.951,0,0,1-5-5V72.4a5,5,0,0,1,10,0V234.6A4.951,4.951,0,0,1,182.5,239.6Z"/><path class="cls-1" d="M281.3,278a4.951,4.951,0,0,1-5-5V34a5,5,0,0,1,10,0V273A5.015,5.015,0,0,1,281.3,278Z"/><path class="cls-1" d="M217.8,139.7a4.694,4.694,0,0,1-2.7-.8,5.128,5.128,0,0,1-1.6-6.9l28.2-44.7a5.008,5.008,0,0,1,8.5,5.3L222,137.3A4.909,4.909,0,0,1,217.8,139.7Z"/><path class="cls-1" d="M246,139.7a4.815,4.815,0,0,1-4.2-2.3L213.6,92.7a5.008,5.008,0,1,1,8.5-5.3l28.2,44.7a4.948,4.948,0,0,1-1.6,6.9A6.766,6.766,0,0,1,246,139.7Z"/><path class="cls-1" d="M316.6,278a4.951,4.951,0,0,1-5-5V34a5,5,0,0,1,10,0V273A5.015,5.015,0,0,1,316.6,278Z"/><path class="cls-1" d="M351.9,278a5,5,0,0,1,0-10c.3,0,31.4-3.2,31.4-114.5C383.2,42.2,352.2,39,351.9,39a5,5,0,0,1,0-10c2.3,0,14.1,1,24.5,20.6,11.2,21.1,16.8,56.1,16.8,103.9,0,47.9-5.7,82.8-16.9,103.9C366,277,354.1,278,351.9,278Z"/><path class="cls-1" d="M341.1,307q-26.1,0-57.3-7.2c-38.2-8.8-82.1-25.7-130.6-50.2C70.8,208,2.7,158,2,157.5a4.794,4.794,0,0,1-2-4,5.068,5.068,0,0,1,2-4c.7-.5,68.8-50.4,151.2-92C201.7,32.9,245.6,16,283.8,7.2c48.4-11.2,87.7-9.3,117,5.4,41.9,21.2,63.1,68.5,63.1,140.8s-21.2,119.7-63.1,140.8C384.1,302.7,364.1,307,341.1,307ZM13.6,153.5c17.8,12.7,76.1,52.8,144.2,87.2,47.8,24.1,90.9,40.7,128.3,49.3,46,10.6,83.1,9.1,110.1-4.6,38.2-19.3,57.6-63.7,57.6-131.9S434.4,40.9,396.2,21.6C369.1,7.9,332.1,6.4,286,17c-37.4,8.6-80.6,25.2-128.3,49.4C89.6,100.8,31.4,140.9,13.6,153.5Z"/><path class="cls-1" d="M147.2,158.5H44a5,5,0,0,1,0-10H147.3a4.951,4.951,0,0,1,5,5A5.1,5.1,0,0,1,147.2,158.5Z"/></g></g></svg>