<?xml version="1.0" encoding="utf-8"?>
<!-- Generator: Adobe Illustrator 24.0.1, SVG Export Plug-In . SVG Version: 6.00 Build 0)  -->
<svg version="1.1" id="Layer_3_copy" xmlns="http://www.w3.org/2000/svg" xmlns:xlink="http://www.w3.org/1999/xlink" x="0px"
	 y="0px" viewBox="0 0 10 10" style="enable-background:new 0 0 10 10;" xml:space="preserve">
<style type="text/css">
	.st0{fill:#611742;}
</style>
<title>phone-icon</title>
<path class="st0" d="M2.6,0.6C2.6,0.6,2.6,0.6,2.6,0.6l1.7,1.7c0.1,0.1,0.1,0.1,0,0.2c0,0,0,0,0,0L4.1,2.6C4,2.8,3.5,3.4,4.3,4.1
	l1.6,1.6C6.1,6,6.4,6.1,6.8,6.2c0.2,0,0.5-0.1,0.6-0.3l0.2-0.2c0.1-0.1,0.1-0.1,0.2,0c0,0,0,0,0,0l1.6,1.6c0.1,0.1,0.1,0.1,0,0.2
	c0,0,0,0,0,0L8.9,8L8.1,8.9c-0.8,0.8-2,0.8-2.7,0L1.1,4.7c-0.8-0.8-0.8-2,0-2.7L2,1.1L2.6,0.6C2.5,0.6,2.5,0.6,2.6,0.6 M2.6,0
	C2.4,0,2.2,0.1,2.1,0.2L1.6,0.7L0.8,1.5c-1,1-1,2.5,0,3.5c0,0,0,0,0,0l4.2,4.2c1,1,2.5,1,3.5,0c0,0,0,0,0,0l0.9-0.9l0.5-0.5
	c0.3-0.3,0.3-0.7,0-1L8.1,5.3c-0.3-0.3-0.7-0.3-1,0L7,5.5C6.9,5.6,6.8,5.6,6.8,5.6c-0.2,0-0.4-0.1-0.5-0.3L4.7,3.8
	C4.4,3.5,4.3,3.2,4.5,3l0.2-0.2c0.3-0.3,0.3-0.7,0-1L3,0.2C2.9,0.1,2.7,0,2.6,0L2.6,0z"/>
<path class="st0" d="M7.8,5.4L7,5.7L6.6,5.8L4,3.3l0.6-1l-2.2-2l-2,2.1L0.3,3.6l0.2,1l4.7,4.7l1.2,0.5l1.4-0.3l1.9-2L7.8,5.4z
	 M3.7,2.8C3.7,2.8,3.6,2.8,3.7,2.8C3.6,2.8,3.6,2.8,3.7,2.8L3.7,2.8C3.6,2.8,3.6,2.8,3.7,2.8c-0.1,0-0.2,0-0.2,0L2.2,1.5
	c-0.1-0.1-0.1-0.1,0-0.2c0.1-0.1,0.1-0.1,0.2,0l1.3,1.3C3.8,2.6,3.8,2.7,3.7,2.8z M8.7,7.9c0,0-0.1,0-0.1,0L7.3,6.6
	c-0.1-0.1-0.1-0.1,0-0.2c0.1-0.1,0.1-0.1,0.2,0c0,0,0,0,0,0l1.3,1.3C8.9,7.7,8.9,7.8,8.7,7.9C8.8,7.9,8.7,7.9,8.7,7.9z"/>
</svg>
