<svg id="Layer_3_copy" data-name="Layer 3 copy" xmlns="http://www.w3.org/2000/svg" viewBox="0 0 10 10"><defs><style>.cls-1{fill:#611742;}</style></defs><title>phone</title><path class="cls-1" d="M2.557.567a.134.134,0,0,1,.1.041L4.294,2.246a.139.139,0,0,1,0,.2l0,0-.18.179c-.156.157-.6.729.188,1.522L5.856,5.7a1.321,1.321,0,0,0,.894.457.877.877,0,0,0,.628-.27l.179-.179a.139.139,0,0,1,.2,0l0,0L9.392,7.344a.139.139,0,0,1,0,.2l0,0L8.931,8l-.861.862a1.946,1.946,0,0,1-2.749,0L1.136,4.679a1.946,1.946,0,0,1,0-2.749L2,1.069,2.459.608a.134.134,0,0,1,.1-.041m0-.545a.684.684,0,0,0-.483.2L1.612.684l-.861.861a2.488,2.488,0,0,0,0,3.519h0L4.936,9.249a2.488,2.488,0,0,0,3.519,0h0l.861-.861.462-.462a.684.684,0,0,0,0-.967L8.139,5.321a.684.684,0,0,0-.967,0L6.993,5.5a.336.336,0,0,1-.243.111.817.817,0,0,1-.509-.3L4.687,3.759c-.267-.267-.412-.528-.187-.752l.179-.179a.684.684,0,0,0,0-.967L3.041.222a.686.686,0,0,0-.484-.2Z"/><path class="cls-1" d="M7.843,5.373l-.465.514L6.7,5.877,4.128,3.3l.216-.489.314-.479L2.4.251.439,2.348.28,3.568l.288.77L5.254,9.024l.944.648,1.433-.241L9.754,7.6ZM3.7,2.774a.136.136,0,0,1-.1.039h0a.136.136,0,0,1-.1-.039L2.188,1.452a.136.136,0,0,1,.192-.193L3.7,2.582A.136.136,0,0,1,3.7,2.774ZM8.71,7.917a.139.139,0,0,1-.1-.039L7.291,6.556a.137.137,0,0,1,.183-.2l.01.01L8.807,7.685a.139.139,0,0,1,0,.193A.14.14,0,0,1,8.71,7.917Z"/></svg>