<svg id="Layer_2_copy" data-name="Layer 2 copy" xmlns="http://www.w3.org/2000/svg" viewBox="0 0 10 10"><defs><style>.cls-1{fill:#fff;stroke:#000;stroke-linecap:round;stroke-miterlimit:10;stroke-width:0.5px;}</style></defs><title>email-icon</title><path d="M9.5.5v9H.5V.5h9M10,0H0V10H10V0Z"/><polyline class="cls-1" points="1.063 8.72 5 3.982 8.937 8.72"/><path class="cls-1" d="M1.063,1.28,4.276,5.146a.941.941,0,0,0,1.448,0L8.937,1.28"/><path d="M5.537,2.793a.284.284,0,0,0-.009.075.109.109,0,0,0,.014.057.048.048,0,0,0,.045.023A.274.274,0,0,0,5.736,2.9a.432.432,0,0,0,.133-.133.762.762,0,0,0,.094-.2A.851.851,0,0,0,6,2.305a.871.871,0,0,0-.074-.369.8.8,0,0,0-.2-.27.84.84,0,0,0-.3-.165,1.181,1.181,0,0,0-.373-.057,1.033,1.033,0,0,0-.407.079.93.93,0,0,0-.313.217.951.951,0,0,0-.2.329,1.175,1.175,0,0,0-.07.411,1.091,1.091,0,0,0,.076.417.96.96,0,0,0,.214.322.948.948,0,0,0,.327.208,1.145,1.145,0,0,0,.414.074,1.169,1.169,0,0,0,.418-.075.937.937,0,0,0,.334-.212h.295a1.21,1.21,0,0,1-.459.418,1.311,1.311,0,0,1-.608.145,1.4,1.4,0,0,1-.525-.1,1.32,1.32,0,0,1-.429-.273,1.263,1.263,0,0,1-.288-.414,1.328,1.328,0,0,1,0-1.035,1.275,1.275,0,0,1,.287-.415,1.382,1.382,0,0,1,.423-.276,1.306,1.306,0,0,1,.514-.1,1.4,1.4,0,0,1,.459.077,1.274,1.274,0,0,1,.388.215,1.049,1.049,0,0,1,.268.336.924.924,0,0,1,.1.438,1.026,1.026,0,0,1-.1.462,1.081,1.081,0,0,1-.231.315.99.99,0,0,1-.273.18.621.621,0,0,1-.222.057.271.271,0,0,1-.18-.056A.192.192,0,0,1,5.2,3.046H5.189a.391.391,0,0,1-.164.154.483.483,0,0,1-.214.049A.5.5,0,0,1,4.6,3.2a.567.567,0,0,1-.174-.13.622.622,0,0,1-.119-.191.608.608,0,0,1-.044-.23,1.04,1.04,0,0,1,.054-.325.924.924,0,0,1,.155-.287.786.786,0,0,1,.241-.2.645.645,0,0,1,.313-.077.554.554,0,0,1,.23.054A.357.357,0,0,1,5.434,2l.055-.189h.287l-.221.9Q5.546,2.753,5.537,2.793Zm-.843.038a.251.251,0,0,0,.2.086.328.328,0,0,0,.173-.049A.517.517,0,0,0,5.2,2.744a.563.563,0,0,0,.089-.17.586.586,0,0,0,.032-.185.3.3,0,0,0-.078-.214.256.256,0,0,0-.192-.084.336.336,0,0,0-.174.048.476.476,0,0,0-.139.122.563.563,0,0,0-.088.166.52.52,0,0,0-.032.178A.33.33,0,0,0,4.694,2.831Z"/></svg>