<?xml version="1.0" encoding="utf-8"?>
<!-- Generator: Adobe Illustrator 24.0.1, SVG Export Plug-In . SVG Version: 6.00 Build 0)  -->
<svg version="1.1" id="Layer_2_copy" xmlns="http://www.w3.org/2000/svg" xmlns:xlink="http://www.w3.org/1999/xlink" x="0px"
	 y="0px" viewBox="0 0 12 8" style="enable-background:new 0 0 12 8;" xml:space="preserve">
<style type="text/css">
	.st0{fill:#611742;}
	.st1{fill:none;stroke:#FFFFFF;stroke-width:0.5;stroke-linecap:round;stroke-miterlimit:10;}
	.st2{fill:#611742;stroke:#FFFFFF;stroke-width:0.5;stroke-linecap:round;stroke-miterlimit:10;}
	.st3{fill:#FFFFFF;}
</style>
<rect class="st0" width="12" height="8"/>
<title>email-icon</title>
<polyline class="st1" points="1,7.1 6,3.1 11,7.1 "/>
<path class="st2" d="M1,0.9l4,3.3c0.4,0.3,1.2,0.4,1.7,0.1c0.1,0,0.1-0.1,0.2-0.1l4-3.3"/>
<path class="st3" d="M6.5,2.1C6.5,2.1,6.5,2.2,6.5,2.1c0,0.1,0,0.1,0,0.1c0,0,0,0,0,0c0.1,0,0.1,0,0.1,0c0.1,0,0.1-0.1,0.1-0.1
	C6.9,2,6.9,2,7,1.9c0-0.1,0-0.2,0-0.3c0-0.1,0-0.3-0.1-0.4c0-0.1-0.1-0.2-0.2-0.3C6.6,0.9,6.5,0.9,6.4,0.8c-0.1,0-0.2-0.1-0.4-0.1
	c-0.1,0-0.3,0-0.4,0.1C5.5,0.9,5.4,1,5.3,1.1C5.2,1.2,5.2,1.3,5.1,1.4c0,0.1-0.1,0.3-0.1,0.4c0,0.1,0,0.3,0.1,0.4
	c0,0.1,0.1,0.2,0.2,0.3c0.1,0.1,0.2,0.2,0.3,0.2C5.8,2.8,6,2.8,6.1,2.8c0.1,0,0.3,0,0.4-0.1c0.1,0,0.2-0.1,0.3-0.2h0.3
	C7,2.7,6.9,2.9,6.7,3C6.5,3.1,6.3,3.1,6.1,3.1c-0.2,0-0.4,0-0.5-0.1C5.4,2.9,5.2,2.8,5.1,2.7C5,2.6,4.9,2.5,4.8,2.3
	c-0.1-0.3-0.1-0.7,0-1C4.9,1.1,5,1,5.1,0.9c0.1-0.1,0.3-0.2,0.4-0.3c0.2-0.1,0.3-0.1,0.5-0.1c0.2,0,0.3,0,0.5,0.1
	c0.1,0,0.3,0.1,0.4,0.2C7,0.9,7.1,1,7.2,1.1c0.1,0.1,0.1,0.3,0.1,0.4c0,0.2,0,0.3-0.1,0.5C7.1,2.1,7,2.2,6.9,2.3
	C6.9,2.4,6.8,2.5,6.7,2.5c-0.1,0-0.1,0.1-0.2,0.1c-0.1,0-0.1,0-0.2-0.1c0,0-0.1-0.1-0.1-0.1h0c0,0.1-0.1,0.1-0.2,0.2
	c-0.1,0-0.1,0-0.2,0c-0.1,0-0.1,0-0.2,0c-0.1,0-0.1-0.1-0.2-0.1C5.4,2.3,5.3,2.3,5.3,2.2c0-0.1,0-0.2,0-0.2c0-0.1,0-0.2,0.1-0.3
	c0-0.1,0.1-0.2,0.2-0.3c0.1-0.1,0.1-0.2,0.2-0.2C5.8,1.1,5.9,1.1,6,1.1c0.1,0,0.2,0,0.2,0.1c0.1,0,0.1,0.1,0.2,0.2l0.1-0.2h0.3
	L6.5,2.1C6.5,2.1,6.5,2.1,6.5,2.1z M5.7,2.2c0.1,0.1,0.1,0.1,0.2,0.1c0.1,0,0.1,0,0.2,0c0.1,0,0.1-0.1,0.1-0.1C6.2,2,6.3,2,6.3,1.9
	c0-0.1,0-0.1,0-0.2c0-0.1,0-0.2-0.1-0.2c0-0.1-0.1-0.1-0.2-0.1c-0.1,0-0.1,0-0.2,0c-0.1,0-0.1,0.1-0.1,0.1c0,0.1-0.1,0.1-0.1,0.2
	c0,0.1,0,0.1,0,0.2C5.6,2,5.6,2.1,5.7,2.2z"/>
</svg>
