<svg id="Layer_1" data-name="Layer 1" xmlns="http://www.w3.org/2000/svg" xmlns:xlink="http://www.w3.org/1999/xlink" viewBox="0 0 200 155"><defs><style>.cls-1{fill:none;}.cls-2{clip-path:url(#clip-path);}.cls-3{fill:#2d99e0;}.cls-4{fill:#288dc6;}.cls-5{fill:#845946;}.cls-6{clip-path:url(#clip-path-2);}.cls-7{fill:#774f3f;}</style><clipPath id="clip-path"><rect class="cls-1" width="200" height="155"/></clipPath><clipPath id="clip-path-2"><ellipse class="cls-1" cx="100" cy="125.878" rx="100" ry="85"/></clipPath></defs><title>face</title><g class="cls-2"><circle class="cls-3" cx="100" cy="38.417" r="38.664"/><path class="cls-4" d="M100,38.011C79.5,38.011,62.437,47,62.437,47h75.126S120.5,38.011,100,38.011Z"/><path class="cls-5" d="M100,40.878c-55.228,0-100,38.055-100,85s44.772,85,100,85,100-38.056,100-85S155.228,40.878,100,40.878ZM50,148.55a22.672,22.672,0,1,1,22.672-22.672A22.673,22.673,0,0,1,50,148.55Zm100,0a22.672,22.672,0,1,1,22.672-22.672A22.673,22.673,0,0,1,150,148.55Z"/><g class="cls-6"><path class="cls-3" d="M100,38.417,10.133,40.878V88.56s56.647-1.107,88.16-16.132L100,44l1.707,28.433c31.513,15.024,88.16,16.132,88.16,16.132V40.878Z"/></g><path class="cls-7" d="M95.775,137.012c-3.122,7.3-6.83,13.649-6.83,19.636a11.055,11.055,0,1,0,22.11,0c0-5.987-3.708-12.334-6.83-19.636Z"/></g></svg>