<?xml version="1.0" encoding="utf-8"?>
<!-- Generator: Adobe Illustrator 24.0.1, SVG Export Plug-In . SVG Version: 6.00 Build 0)  -->
<svg version="1.1" id="Layer_1" xmlns="http://www.w3.org/2000/svg" xmlns:xlink="http://www.w3.org/1999/xlink" x="0px" y="0px"
	 viewBox="0 0 463.8 307" style="enable-background:new 0 0 463.8 307;" xml:space="preserve">
<title>Asset 1</title>
<g id="Layer_2_1_">
	<g id="logo-black">
		<path d="M5,239.6c-2.8,0-5-2.2-5-5V72.4c0-2.8,2.2-5,5-5s5,2.2,5,5v162.2C10,237.4,7.8,239.6,5,239.6z"/>
		<path d="M423.5,239.6c-2.8,0-5-2.2-5-5V72.4c0-2.8,2.2-5,5-5s5,2.2,5,5v162.2C428.5,237.4,426.3,239.6,423.5,239.6z"/>
		<path d="M182.5,239.6c-2.8,0-5-2.2-5-5V72.4c0-2.8,2.2-5,5-5s5,2.2,5,5v162.2C187.5,237.4,185.3,239.6,182.5,239.6z"/>
		<path d="M281.3,278c-2.8,0-5-2.2-5-5V34c0-2.8,2.2-5,5-5s5,2.2,5,5V273C286.3,275.7,284.1,278,281.3,278z"/>
		<path d="M217.8,139.7c-0.9,0-1.8-0.2-2.7-0.8c-2.3-1.5-3-4.6-1.6-6.9l28.2-44.7c1.5-2.3,4.6-3,6.9-1.6c2.3,1.5,3,4.6,1.6,6.9
			L222,137.3C221.1,138.8,219.5,139.7,217.8,139.7z"/>
		<path d="M246,139.7c-1.7,0-3.3-0.8-4.2-2.3l-28.2-44.7c-1.5-2.3-0.8-5.4,1.6-6.9c2.3-1.5,5.4-0.8,6.9,1.6l28.2,44.7
			c1.5,2.3,0.8,5.4-1.6,6.9C247.8,139.4,246.9,139.7,246,139.7z"/>
		<path d="M316.6,278c-2.8,0-5-2.2-5-5V34c0-2.8,2.2-5,5-5s5,2.2,5,5V273C321.6,275.7,319.4,278,316.6,278z"/>
		<path d="M351.9,278c-2.8,0-5-2.2-5-5c0-2.8,2.2-5,5-5c0.3,0,31.4-3.2,31.4-114.5C383.2,42.2,352.2,39,351.9,39c-2.8,0-5-2.2-5-5
			c0-2.8,2.2-5,5-5c2.3,0,14.1,1,24.5,20.6c11.2,21.1,16.8,56.1,16.8,103.9c0,47.9-5.7,82.8-16.9,103.9C366,277,354.1,278,351.9,278
			z"/>
		<path d="M341.1,307c-17.4,0-36.5-2.4-57.3-7.2c-38.2-8.8-82.1-25.7-130.6-50.2C70.8,208,2.7,158,2,157.5c-1.3-0.9-2-2.4-2-4
			c0-1.6,0.8-3.1,2-4c0.7-0.5,68.8-50.4,151.2-92C201.7,32.9,245.6,16,283.8,7.2c48.4-11.2,87.7-9.3,117,5.4
			c41.9,21.2,63.1,68.5,63.1,140.8c0,72.3-21.2,119.7-63.1,140.8C384.1,302.7,364.1,307,341.1,307z M13.6,153.5
			c17.8,12.7,76.1,52.8,144.2,87.2c47.8,24.1,90.9,40.7,128.3,49.3c46,10.6,83.1,9.1,110.1-4.6c38.2-19.3,57.6-63.7,57.6-131.9
			c0-68.2-19.4-112.6-57.6-131.9C369.1,7.9,332.1,6.4,286,17c-37.4,8.6-80.6,25.2-128.3,49.4C89.6,100.8,31.4,140.9,13.6,153.5z"/>
		<path d="M147.2,158.5H44c-2.8,0-5-2.2-5-5c0-2.8,2.2-5,5-5h103.3c2.8,0,5,2.2,5,5C152.2,156.3,150,158.5,147.2,158.5z"/>
	</g>
</g>
</svg>
