<svg id="Layer_3_copy" data-name="Layer 3 copy" xmlns="http://www.w3.org/2000/svg" viewBox="0 0 10 10"><title>phone-icon</title><path d="M2.557.567a.136.136,0,0,1,.1.041L4.294,2.246a.139.139,0,0,1,0,.2l-.18.179c-.156.157-.6.729.188,1.522L5.856,5.7a1.321,1.321,0,0,0,.894.457.876.876,0,0,0,.628-.27l.179-.179a.139.139,0,0,1,.2,0L9.392,7.344a.139.139,0,0,1,0,.2L8.931,8l-.861.862a1.945,1.945,0,0,1-2.749,0L1.136,4.679a1.946,1.946,0,0,1,0-2.749L2,1.069,2.459.608a.136.136,0,0,1,.1-.041m0-.545a.681.681,0,0,0-.483.2L1.612.684l-.861.861a2.488,2.488,0,0,0,0,3.519L4.936,9.249a2.488,2.488,0,0,0,3.519,0l.861-.861.462-.462a.684.684,0,0,0,0-.967L8.139,5.321a.684.684,0,0,0-.967,0L6.993,5.5a.337.337,0,0,1-.243.111.82.82,0,0,1-.509-.3L4.687,3.759c-.267-.267-.412-.528-.187-.752l.179-.179a.684.684,0,0,0,0-.967L3.041.222a.685.685,0,0,0-.484-.2Z"/><path d="M3.606,2.814a.136.136,0,0,1-.1-.04L2.188,1.452a.136.136,0,1,1,.192-.193L3.7,2.582a.136.136,0,0,1-.1.232Z"/><path d="M8.71,7.917a.141.141,0,0,1-.1-.039L7.291,6.556a.137.137,0,1,1,.193-.194L8.807,7.685a.139.139,0,0,1,0,.193A.141.141,0,0,1,8.71,7.917Z"/></svg>